<svg width="37" height="28" viewBox="0 0 37 28" fill="none" xmlns="http://www.w3.org/2000/svg">
<path d="M4.53711 3.98438C3.91836 3.98438 3.41211 4.49062 3.41211 5.10938V6.66328L15.541 16.6195C16.9965 17.8148 19.0848 17.8148 20.5402 16.6195L32.6621 6.66328V5.10938C32.6621 4.49062 32.1559 3.98438 31.5371 3.98438H4.53711ZM3.41211 11.0297V23.1094C3.41211 23.7281 3.91836 24.2344 4.53711 24.2344H31.5371C32.1559 24.2344 32.6621 23.7281 32.6621 23.1094V11.0297L22.6777 19.2281C19.9777 21.443 16.0895 21.443 13.3965 19.2281L3.41211 11.0297ZM0.0371094 5.10938C0.0371094 2.62734 2.05508 0.609375 4.53711 0.609375H31.5371C34.0191 0.609375 36.0371 2.62734 36.0371 5.10938V23.1094C36.0371 25.5914 34.0191 27.6094 31.5371 27.6094H4.53711C2.05508 27.6094 0.0371094 25.5914 0.0371094 23.1094V5.10938Z" fill="white"/>
</svg>
