<svg width="24" height="24" viewBox="0 0 24 24" fill="none" xmlns="http://www.w3.org/2000/svg">
<path d="M12.0371 0.109375C12.2528 0.109375 12.4684 0.15625 12.6653 0.245313L21.4918 3.99063C22.5231 4.42656 23.2918 5.44375 23.2871 6.67188C23.2637 11.3219 21.3512 19.8297 13.2746 23.6969C12.4918 24.0719 11.5824 24.0719 10.7996 23.6969C2.72307 19.8297 0.810568 11.3219 0.787131 6.67188C0.782443 5.44375 1.55119 4.42656 2.58244 3.99063L11.4137 0.245313C11.6059 0.15625 11.8215 0.109375 12.0371 0.109375ZM12.0371 3.24063V20.9594C18.5059 17.8281 20.2449 10.8953 20.2871 6.7375L12.0371 3.24063Z" fill="#2563EB"/>
</svg>
