<svg width="13" height="13" viewBox="0 0 13 13" fill="none" xmlns="http://www.w3.org/2000/svg">
<path d="M6.19336 12.6094C7.78466 12.6094 9.31078 11.9772 10.436 10.852C11.5612 9.7268 12.1934 8.20067 12.1934 6.60938C12.1934 5.01808 11.5612 3.49195 10.436 2.36673C9.31078 1.24152 7.78466 0.609375 6.19336 0.609375C4.60206 0.609375 3.07594 1.24152 1.95072 2.36673C0.825501 3.49195 0.193359 5.01808 0.193359 6.60938C0.193359 8.20067 0.825501 9.7268 1.95072 10.852C3.07594 11.9772 4.60206 12.6094 6.19336 12.6094ZM4.17305 4.48359C4.3582 3.96094 4.85508 3.60938 5.41055 3.60938H6.77695C7.59492 3.60938 8.25586 4.27266 8.25586 5.08828C8.25586 5.61797 7.97227 6.10781 7.51289 6.37266L6.75586 6.80625C6.75117 7.11094 6.50039 7.35938 6.19336 7.35938C5.88164 7.35938 5.63086 7.10859 5.63086 6.79688V6.48047C5.63086 6.27891 5.73867 6.09375 5.91445 5.99297L6.95273 5.39766C7.06289 5.33438 7.13086 5.21719 7.13086 5.09062C7.13086 4.89375 6.97148 4.73672 6.77695 4.73672H5.41055C5.33086 4.73672 5.26055 4.78594 5.23477 4.86094L5.22539 4.88906C5.12227 5.18203 4.79883 5.33437 4.5082 5.23125C4.21758 5.12812 4.06289 4.80469 4.16602 4.51406L4.17539 4.48594L4.17305 4.48359ZM5.44336 8.85938C5.44336 8.66046 5.52238 8.4697 5.66303 8.32905C5.80368 8.18839 5.99445 8.10938 6.19336 8.10938C6.39227 8.10938 6.58304 8.18839 6.72369 8.32905C6.86434 8.4697 6.94336 8.66046 6.94336 8.85938C6.94336 9.05829 6.86434 9.24905 6.72369 9.3897C6.58304 9.53036 6.39227 9.60938 6.19336 9.60938C5.99445 9.60938 5.80368 9.53036 5.66303 9.3897C5.52238 9.24905 5.44336 9.05829 5.44336 8.85938Z" fill="#4B5563"/>
</svg>
