<svg width="13" height="13" viewBox="0 0 13 13" fill="none" xmlns="http://www.w3.org/2000/svg">
<path d="M8.74023 6.60938C8.74023 7.12969 8.71211 7.63125 8.66289 8.10938H4.31758C4.26602 7.63125 4.24023 7.12969 4.24023 6.60938C4.24023 6.08906 4.26836 5.5875 4.31758 5.10938H8.66289C8.71445 5.5875 8.74023 6.08906 8.74023 6.60938ZM9.41523 5.10938H12.3004C12.4246 5.58984 12.4902 6.09141 12.4902 6.60938C12.4902 7.12734 12.4246 7.62891 12.3004 8.10938H9.41523C9.46445 7.62656 9.49023 7.125 9.49023 6.60938C9.49023 6.09375 9.46445 5.59219 9.41523 5.10938ZM12.0543 4.35938H9.31914C9.08477 2.86172 8.6207 1.60781 8.02305 0.80625C9.8582 1.29141 11.3512 2.62266 12.052 4.35938H12.0543ZM8.55977 4.35938H4.4207C4.56367 3.50625 4.78398 2.75156 5.05352 2.13984C5.29961 1.58672 5.57383 1.18594 5.83867 0.932813C6.10117 0.684375 6.31914 0.609375 6.49023 0.609375C6.66133 0.609375 6.8793 0.684375 7.1418 0.932813C7.40664 1.18594 7.68086 1.58672 7.92695 2.13984C8.19883 2.74922 8.4168 3.50391 8.55977 4.35938ZM3.66133 4.35938H0.926172C1.6293 2.62266 3.11992 1.29141 4.95742 0.80625C4.35977 1.60781 3.8957 2.86172 3.66133 4.35938ZM0.680078 5.10938H3.56523C3.51602 5.59219 3.49023 6.09375 3.49023 6.60938C3.49023 7.125 3.51602 7.62656 3.56523 8.10938H0.680078C0.555859 7.62891 0.490234 7.12734 0.490234 6.60938C0.490234 6.09141 0.555859 5.58984 0.680078 5.10938ZM5.05352 11.0766C4.78164 10.4672 4.56367 9.7125 4.4207 8.85938H8.55977C8.4168 9.7125 8.19648 10.4672 7.92695 11.0766C7.68086 11.6297 7.40664 12.0305 7.1418 12.2836C6.8793 12.5344 6.66133 12.6094 6.49023 12.6094C6.31914 12.6094 6.10117 12.5344 5.83867 12.2859C5.57383 12.0328 5.29961 11.632 5.05352 11.0789V11.0766ZM3.66133 8.85938C3.8957 10.357 4.35977 11.6109 4.95742 12.4125C3.11992 11.9273 1.6293 10.5961 0.926172 8.85938H3.66133ZM12.0543 8.85938C11.3512 10.5961 9.86055 11.9273 8.02539 12.4125C8.62305 11.6109 9.08477 10.357 9.32148 8.85938H12.0543Z" fill="#4B5563"/>
</svg>
